<svg xmlns="http://www.w3.org/2000/svg" viewBox="0 0 422 813">
  <title>Pluto Life Manual BodyGraph</title>
  <defs>
    <radialGradient id="aura" cx="50%" cy="43%" r="62%"><stop offset="0" stop-color="#f8ead4" stop-opacity=".34"/><stop offset="1" stop-color="#f8ead4" stop-opacity="0"/></radialGradient>
  </defs>
  <ellipse cx="211" cy="406" rx="195" ry="348" fill="url(#aura)"/>
  <g fill="none" stroke="#c08a3c" stroke-width="1" opacity=".2"><ellipse cx="211" cy="406" rx="174" ry="316"/><ellipse cx="211" cy="406" rx="142" ry="274"/></g>
  <g fill="none" stroke="#d3993d" stroke-width="10" stroke-linecap="round" stroke-linejoin="round" opacity=".9"><path d="M211.00 374.00 L211.00 306.00"/><path d="M211.00 435.00 L211.00 518.00"/><path d="M187.00 582.00 L211.00 635.00"/><path d="M237.00 134.00 L237.00 76.00"/><path d="M187.00 518.00 Q166.00 468.00 190.00 424.00"/><path d="M334.00 540.00 L242.00 548.00"/><path d="M190.00 382.00 L195.00 306.00"/><path d="M235.00 582.00 L237.00 635.00"/><path d="M181.00 403.00 L243.00 306.00"/><path d="M181.00 403.00 Q165.00 475.00 180.00 548.00"/><path d="M181.00 403.00 Q126.00 420.00 82.00 486.00"/><path d="M237.00 184.00 L237.00 244.00"/><path d="M241.00 292.00 Q316.00 330.00 340.00 486.00"/><path d="M232.00 382.00 L227.00 306.00"/><path d="M181.00 270.00 Q92.00 346.00 36.00 507.00"/><path d="M185.00 184.00 L185.00 244.00"/><path d="M40.00 558.00 Q78.00 676.00 190.00 692.00"/><path d="M232.00 692.00 Q300.00 675.00 334.00 562.00"/><path d="M243.00 306.00 Q276.00 438.00 180.00 548.00"/><path d="M243.00 306.00 Q128.00 328.00 82.00 486.00"/><path d="M284.00 441.00 Q291.00 333.00 179.00 306.00"/><path d="M211.00 244.00 L211.00 184.00"/><path d="M211.00 134.00 L211.00 76.00"/><path d="M241.00 403.00 L298.00 448.00"/><path d="M292.00 468.00 Q190.00 454.00 88.00 516.00"/><path d="M180.00 571.00 L88.00 540.00"/><path d="M68.00 575.00 Q102.00 670.00 180.00 675.00"/><path d="M235.00 518.00 L232.00 424.00"/><path d="M382.00 558.00 Q330.00 660.00 242.00 654.00"/><path d="M88.00 562.00 Q112.00 650.00 180.00 654.00"/><path d="M180.00 548.00 Q132.00 530.00 82.00 486.00"/><path d="M241.00 270.00 Q330.00 350.00 386.00 507.00"/><path d="M334.00 516.00 L325.00 455.00"/><path d="M242.00 675.00 Q318.00 670.00 354.00 575.00"/><path d="M211.00 582.00 L185.00 635.00"/><path d="M185.00 134.00 L185.00 76.00"/></g>
  <g fill="none" stroke="#f3e8d8" stroke-width="6.6" stroke-linecap="round" stroke-linejoin="round" opacity=".98"><path d="M211.00 374.00 L211.00 306.00"/><path d="M211.00 435.00 L211.00 518.00"/><path d="M187.00 582.00 L211.00 635.00"/><path d="M237.00 134.00 L237.00 76.00"/><path d="M187.00 518.00 Q166.00 468.00 190.00 424.00"/><path d="M334.00 540.00 L242.00 548.00"/><path d="M190.00 382.00 L195.00 306.00"/><path d="M235.00 582.00 L237.00 635.00"/><path d="M181.00 403.00 L243.00 306.00"/><path d="M181.00 403.00 Q165.00 475.00 180.00 548.00"/><path d="M181.00 403.00 Q126.00 420.00 82.00 486.00"/><path d="M237.00 184.00 L237.00 244.00"/><path d="M241.00 292.00 Q316.00 330.00 340.00 486.00"/><path d="M232.00 382.00 L227.00 306.00"/><path d="M181.00 270.00 Q92.00 346.00 36.00 507.00"/><path d="M185.00 184.00 L185.00 244.00"/><path d="M40.00 558.00 Q78.00 676.00 190.00 692.00"/><path d="M232.00 692.00 Q300.00 675.00 334.00 562.00"/><path d="M243.00 306.00 Q276.00 438.00 180.00 548.00"/><path d="M243.00 306.00 Q128.00 328.00 82.00 486.00"/><path d="M284.00 441.00 Q291.00 333.00 179.00 306.00"/><path d="M211.00 244.00 L211.00 184.00"/><path d="M211.00 134.00 L211.00 76.00"/><path d="M241.00 403.00 L298.00 448.00"/><path d="M292.00 468.00 Q190.00 454.00 88.00 516.00"/><path d="M180.00 571.00 L88.00 540.00"/><path d="M68.00 575.00 Q102.00 670.00 180.00 675.00"/><path d="M235.00 518.00 L232.00 424.00"/><path d="M382.00 558.00 Q330.00 660.00 242.00 654.00"/><path d="M88.00 562.00 Q112.00 650.00 180.00 654.00"/><path d="M180.00 548.00 Q132.00 530.00 82.00 486.00"/><path d="M241.00 270.00 Q330.00 350.00 386.00 507.00"/><path d="M334.00 516.00 L325.00 455.00"/><path d="M242.00 675.00 Q318.00 670.00 354.00 575.00"/><path d="M211.00 582.00 L185.00 635.00"/><path d="M185.00 134.00 L185.00 76.00"/></g>
  <g fill="none" stroke="transparent" stroke-width="3.9" stroke-linecap="round" stroke-linejoin="round"><path data-gate-line="1" data-gate-line-type="design" d="M208.85 374.00 L208.85 340.00"/><path data-gate-line="1" data-gate-line-type="personality" d="M213.15 374.00 L213.15 340.00"/><path data-gate-line="8" data-gate-line-type="design" d="M213.15 306.00 L213.15 340.00"/><path data-gate-line="8" data-gate-line-type="personality" d="M208.85 306.00 L208.85 340.00"/><path data-gate-line="2" data-gate-line-type="design" d="M213.15 435.00 L213.15 476.50"/><path data-gate-line="2" data-gate-line-type="personality" d="M208.85 435.00 L208.85 476.50"/><path data-gate-line="14" data-gate-line-type="design" d="M208.85 518.00 L208.85 476.50"/><path data-gate-line="14" data-gate-line-type="personality" d="M213.15 518.00 L213.15 476.50"/><path data-gate-line="3" data-gate-line-type="design" d="M188.96 581.11 L200.96 607.61"/><path data-gate-line="3" data-gate-line-type="personality" d="M185.04 582.89 L197.04 609.39"/><path data-gate-line="60" data-gate-line-type="design" d="M209.04 635.89 L197.04 609.39"/><path data-gate-line="60" data-gate-line-type="personality" d="M212.96 634.11 L200.96 607.61"/><path data-gate-line="4" data-gate-line-type="design" d="M234.85 134.00 L234.85 105.00"/><path data-gate-line="4" data-gate-line-type="personality" d="M239.15 134.00 L239.15 105.00"/><path data-gate-line="63" data-gate-line-type="design" d="M239.15 76.00 L239.15 105.00"/><path data-gate-line="63" data-gate-line-type="personality" d="M234.85 76.00 L234.85 105.00"/><path data-gate-line="5" data-gate-line-type="design" d="M184.89 518.42 Q174.39 493.42 175.14 469.92"/><path data-gate-line="5" data-gate-line-type="personality" d="M189.11 517.58 Q178.61 492.58 179.36 469.08"/><path data-gate-line="15" data-gate-line-type="design" d="M192.07 424.58 Q180.07 446.58 179.32 470.08"/><path data-gate-line="15" data-gate-line-type="personality" d="M187.93 423.42 Q175.93 445.42 175.18 468.92"/><path data-gate-line="6" data-gate-line-type="design" d="M334.19 542.14 L288.19 546.14"/><path data-gate-line="6" data-gate-line-type="personality" d="M333.81 537.86 L287.81 541.86"/><path data-gate-line="59" data-gate-line-type="design" d="M241.81 545.86 L287.81 541.86"/><path data-gate-line="59" data-gate-line-type="personality" d="M242.19 550.14 L288.19 546.14"/><path data-gate-line="7" data-gate-line-type="design" d="M187.85 381.86 L190.35 343.86"/><path data-gate-line="7" data-gate-line-type="personality" d="M192.15 382.14 L194.65 344.14"/><path data-gate-line="31" data-gate-line-type="design" d="M197.15 306.14 L194.65 344.14"/><path data-gate-line="31" data-gate-line-type="personality" d="M192.85 305.86 L190.35 343.86"/><path data-gate-line="9" data-gate-line-type="design" d="M237.15 581.92 L238.15 608.42"/><path data-gate-line="9" data-gate-line-type="personality" d="M232.85 582.08 L233.85 608.58"/><path data-gate-line="52" data-gate-line-type="design" d="M234.85 635.08 L233.85 608.58"/><path data-gate-line="52" data-gate-line-type="personality" d="M239.15 634.92 L238.15 608.42"/><path data-gate-line="10" data-gate-line-type="design" d="M179.19 401.84 L210.19 353.34"/><path data-gate-line="10" data-gate-line-type="personality" d="M182.81 404.16 L213.81 355.66"/><path data-gate-line="20" data-gate-line-type="design" d="M244.81 307.16 L213.81 355.66"/><path data-gate-line="20" data-gate-line-type="personality" d="M241.19 304.84 L210.19 353.34"/><path data-gate-line="10" data-gate-line-type="design" d="M183.14 403.24 Q175.14 439.24 174.89 475.49"/><path data-gate-line="10" data-gate-line-type="personality" d="M178.86 402.76 Q170.86 438.76 170.61 475.01"/><path data-gate-line="34" data-gate-line-type="design" d="M177.86 548.21 Q170.36 511.71 170.61 475.46"/><path data-gate-line="34" data-gate-line-type="personality" d="M182.14 547.79 Q174.64 511.29 174.89 475.04"/><path data-gate-line="10" data-gate-line-type="design" d="M182.05 404.88 Q154.55 413.38 129.80 434.13"/><path data-gate-line="10" data-gate-line-type="personality" d="M179.95 401.12 Q152.45 409.62 127.70 430.37"/><path data-gate-line="57" data-gate-line-type="design" d="M80.38 484.59 Q102.38 451.59 127.13 430.84"/><path data-gate-line="57" data-gate-line-type="personality" d="M83.62 487.41 Q105.62 454.41 130.37 433.66"/><path data-gate-line="11" data-gate-line-type="design" d="M239.15 184.00 L239.15 214.00"/><path data-gate-line="11" data-gate-line-type="personality" d="M234.85 184.00 L234.85 214.00"/><path data-gate-line="56" data-gate-line-type="design" d="M234.85 244.00 L234.85 214.00"/><path data-gate-line="56" data-gate-line-type="personality" d="M239.15 244.00 L239.15 214.00"/><path data-gate-line="12" data-gate-line-type="design" d="M242.58 290.54 Q280.08 309.54 304.83 358.04"/><path data-gate-line="12" data-gate-line-type="personality" d="M239.42 293.46 Q276.92 312.46 301.67 360.96"/><path data-gate-line="22" data-gate-line-type="design" d="M337.94 486.60 Q325.94 408.60 301.19 360.10"/><path data-gate-line="22" data-gate-line-type="personality" d="M342.06 485.40 Q330.06 407.40 305.31 358.90"/><path data-gate-line="13" data-gate-line-type="design" d="M229.85 382.14 L227.35 344.14"/><path data-gate-line="13" data-gate-line-type="personality" d="M234.15 381.86 L231.65 343.86"/><path data-gate-line="33" data-gate-line-type="design" d="M229.15 305.86 L231.65 343.86"/><path data-gate-line="33" data-gate-line-type="personality" d="M224.85 306.14 L227.35 344.14"/><path data-gate-line="16" data-gate-line-type="design" d="M182.65 271.37 Q138.15 309.37 101.90 368.62"/><path data-gate-line="16" data-gate-line-type="personality" d="M179.35 268.63 Q134.85 306.63 98.60 365.88"/><path data-gate-line="48" data-gate-line-type="design" d="M34.05 506.10 Q62.05 425.60 98.30 366.35"/><path data-gate-line="48" data-gate-line-type="personality" d="M37.95 507.90 Q65.95 427.40 102.20 368.15"/><path data-gate-line="17" data-gate-line-type="design" d="M187.15 184.00 L187.15 214.00"/><path data-gate-line="17" data-gate-line-type="personality" d="M182.85 184.00 L182.85 214.00"/><path data-gate-line="62" data-gate-line-type="design" d="M182.85 244.00 L182.85 214.00"/><path data-gate-line="62" data-gate-line-type="personality" d="M187.15 244.00 L187.15 214.00"/><path data-gate-line="18" data-gate-line-type="design" d="M41.83 556.88 Q60.83 615.88 98.33 649.38"/><path data-gate-line="18" data-gate-line-type="personality" d="M38.17 559.12 Q57.17 618.12 94.67 651.62"/><path data-gate-line="58" data-gate-line-type="design" d="M189.13 693.97 Q133.13 685.97 95.63 652.47"/><path data-gate-line="58" data-gate-line-type="personality" d="M190.87 690.03 Q134.87 682.03 97.37 648.53"/><path data-gate-line="19" data-gate-line-type="design" d="M230.78 690.23 Q264.78 681.73 290.28 649.23"/><path data-gate-line="19" data-gate-line-type="personality" d="M233.22 693.77 Q267.22 685.27 292.72 652.77"/><path data-gate-line="49" data-gate-line-type="design" d="M335.94 562.93 Q318.94 619.43 293.44 651.93"/><path data-gate-line="49" data-gate-line-type="personality" d="M332.06 561.07 Q315.06 617.57 289.56 650.07"/><path data-gate-line="20" data-gate-line-type="design" d="M245.15 305.99 Q261.65 371.99 245.90 432.49"/><path data-gate-line="20" data-gate-line-type="personality" d="M240.85 306.01 Q257.35 372.01 241.60 432.51"/><path data-gate-line="34" data-gate-line-type="design" d="M178.12 546.96 Q226.12 491.96 241.87 431.46"/><path data-gate-line="34" data-gate-line-type="personality" d="M181.88 549.04 Q229.88 494.04 245.63 433.54"/><path data-gate-line="20" data-gate-line-type="design" d="M244.07 307.87 Q186.57 318.87 146.32 363.87"/><path data-gate-line="20" data-gate-line-type="personality" d="M241.93 304.13 Q184.43 315.13 144.18 360.13"/><path data-gate-line="57" data-gate-line-type="design" d="M80.08 485.02 Q103.08 406.02 143.33 361.02"/><path data-gate-line="57" data-gate-line-type="personality" d="M83.92 486.98 Q106.92 407.98 147.17 362.98"/><path data-gate-line="21" data-gate-line-type="design" d="M281.92 441.54 Q285.42 387.54 259.17 353.79"/><path data-gate-line="21" data-gate-line-type="personality" d="M286.08 440.46 Q289.58 386.46 263.33 352.71"/><path data-gate-line="45" data-gate-line-type="design" d="M180.07 304.14 Q236.07 317.64 262.32 351.39"/><path data-gate-line="45" data-gate-line-type="personality" d="M177.93 307.86 Q233.93 321.36 260.18 355.11"/><path data-gate-line="23" data-gate-line-type="design" d="M208.85 244.00 L208.85 214.00"/><path data-gate-line="23" data-gate-line-type="personality" d="M213.15 244.00 L213.15 214.00"/><path data-gate-line="43" data-gate-line-type="design" d="M213.15 184.00 L213.15 214.00"/><path data-gate-line="43" data-gate-line-type="personality" d="M208.85 184.00 L208.85 214.00"/><path data-gate-line="24" data-gate-line-type="design" d="M208.85 134.00 L208.85 105.00"/><path data-gate-line="24" data-gate-line-type="personality" d="M213.15 134.00 L213.15 105.00"/><path data-gate-line="61" data-gate-line-type="design" d="M213.15 76.00 L213.15 105.00"/><path data-gate-line="61" data-gate-line-type="personality" d="M208.85 76.00 L208.85 105.00"/><path data-gate-line="25" data-gate-line-type="design" d="M242.33 401.31 L270.83 423.81"/><path data-gate-line="25" data-gate-line-type="personality" d="M239.67 404.69 L268.17 427.19"/><path data-gate-line="51" data-gate-line-type="design" d="M296.67 449.69 L268.17 427.19"/><path data-gate-line="51" data-gate-line-type="personality" d="M299.33 446.31 L270.83 423.81"/><path data-gate-line="26" data-gate-line-type="design" d="M292.11 470.15 Q241.11 463.15 190.11 475.15"/><path data-gate-line="26" data-gate-line-type="personality" d="M291.89 465.85 Q240.89 458.85 189.89 470.85"/><path data-gate-line="44" data-gate-line-type="design" d="M87.16 514.02 Q138.16 483.02 189.16 471.02"/><path data-gate-line="44" data-gate-line-type="personality" d="M88.84 517.98 Q139.84 486.98 190.84 474.98"/><path data-gate-line="27" data-gate-line-type="design" d="M179.31 573.04 L133.31 557.54"/><path data-gate-line="27" data-gate-line-type="personality" d="M180.69 568.96 L134.69 553.46"/><path data-gate-line="50" data-gate-line-type="design" d="M88.69 537.96 L134.69 553.46"/><path data-gate-line="50" data-gate-line-type="personality" d="M87.31 542.04 L133.31 557.54"/><path data-gate-line="28" data-gate-line-type="design" d="M69.83 573.87 Q86.83 621.37 114.83 646.37"/><path data-gate-line="28" data-gate-line-type="personality" d="M66.17 576.13 Q83.17 623.63 111.17 648.63"/><path data-gate-line="38" data-gate-line-type="design" d="M179.18 676.99 Q140.18 674.49 112.18 649.49"/><path data-gate-line="38" data-gate-line-type="personality" d="M180.82 673.01 Q141.82 670.51 113.82 645.51"/><path data-gate-line="29" data-gate-line-type="design" d="M232.85 518.07 L231.35 471.07"/><path data-gate-line="29" data-gate-line-type="personality" d="M237.15 517.93 L235.65 470.93"/><path data-gate-line="46" data-gate-line-type="design" d="M234.15 423.93 L235.65 470.93"/><path data-gate-line="46" data-gate-line-type="personality" d="M229.85 424.07 L231.35 471.07"/><path data-gate-line="30" data-gate-line-type="design" d="M383.67 559.36 Q357.67 610.36 322.67 634.36"/><path data-gate-line="30" data-gate-line-type="personality" d="M380.33 556.64 Q354.33 607.64 319.33 631.64"/><path data-gate-line="41" data-gate-line-type="design" d="M241.45 651.92 Q285.45 654.92 320.45 630.92"/><path data-gate-line="41" data-gate-line-type="personality" d="M242.55 656.08 Q286.55 659.08 321.55 635.08"/><path data-gate-line="32" data-gate-line-type="design" d="M89.91 561.00 Q101.91 605.00 124.91 628.00"/><path data-gate-line="32" data-gate-line-type="personality" d="M86.09 563.00 Q98.09 607.00 121.09 630.00"/><path data-gate-line="54" data-gate-line-type="design" d="M179.14 655.97 Q145.14 653.97 122.14 630.97"/><path data-gate-line="54" data-gate-line-type="personality" d="M180.86 652.03 Q146.86 650.03 123.86 627.03"/><path data-gate-line="34" data-gate-line-type="design" d="M179.03 549.92 Q155.03 540.92 130.53 525.42"/><path data-gate-line="34" data-gate-line-type="personality" d="M180.97 546.08 Q156.97 537.08 132.47 521.58"/><path data-gate-line="57" data-gate-line-type="design" d="M83.30 484.29 Q108.30 506.29 132.80 521.79"/><path data-gate-line="57" data-gate-line-type="personality" d="M80.70 487.71 Q105.70 509.71 130.20 525.21"/><path data-gate-line="35" data-gate-line-type="design" d="M242.67 268.64 Q287.17 308.64 323.42 367.89"/><path data-gate-line="35" data-gate-line-type="personality" d="M239.33 271.36 Q283.83 311.36 320.08 370.61"/><path data-gate-line="36" data-gate-line-type="design" d="M384.05 507.91 Q356.05 429.41 319.80 370.16"/><path data-gate-line="36" data-gate-line-type="personality" d="M387.95 506.09 Q359.95 427.59 323.70 368.34"/><path data-gate-line="37" data-gate-line-type="design" d="M331.87 516.31 L327.37 485.81"/><path data-gate-line="37" data-gate-line-type="personality" d="M336.13 515.69 L331.63 485.19"/><path data-gate-line="40" data-gate-line-type="design" d="M327.13 454.69 L331.63 485.19"/><path data-gate-line="40" data-gate-line-type="personality" d="M322.87 455.31 L327.37 485.81"/><path data-gate-line="39" data-gate-line-type="design" d="M241.17 673.02 Q279.17 670.52 307.17 645.52"/><path data-gate-line="39" data-gate-line-type="personality" d="M242.83 676.98 Q280.83 674.48 308.83 649.48"/><path data-gate-line="55" data-gate-line-type="design" d="M355.82 576.15 Q337.82 623.65 309.82 648.65"/><path data-gate-line="55" data-gate-line-type="personality" d="M352.18 573.85 Q334.18 621.35 306.18 646.35"/><path data-gate-line="42" data-gate-line-type="design" d="M212.93 582.95 L199.93 609.45"/><path data-gate-line="42" data-gate-line-type="personality" d="M209.07 581.05 L196.07 607.55"/><path data-gate-line="53" data-gate-line-type="design" d="M183.07 634.05 L196.07 607.55"/><path data-gate-line="53" data-gate-line-type="personality" d="M186.93 635.95 L199.93 609.45"/><path data-gate-line="47" data-gate-line-type="design" d="M182.85 134.00 L182.85 105.00"/><path data-gate-line="47" data-gate-line-type="personality" d="M187.15 134.00 L187.15 105.00"/><path data-gate-line="64" data-gate-line-type="design" d="M187.15 76.00 L187.15 105.00"/><path data-gate-line="64" data-gate-line-type="personality" d="M182.85 76.00 L182.85 105.00"/></g>
  <g fill="#f9eedd" stroke="#a87945" stroke-width="2.2" stroke-linejoin="round" style="paint-order:stroke fill"><path id="head-center" d="M206.56 22.83 Q211 15 215.44 22.83 Q253 89 244 89 Q169 89 173.44 81.17 Z"/>
    <path id="ajna-center" d="M173.22 128.95 Q169 121 178 121 Q253 121 248.78 128.95 Q211 200 206.78 192.05 Z"/>
    <rect id="throat-center" x="169" y="231" width="84" height="88" rx="11"/>
    <path id="g-center" d="M204.64 366.36 Q211 360 217.36 366.36 Q254 403 247.64 409.36 Q211 446 204.64 439.64 Q168 403 174.36 396.64 Z"/>
    <path id="heart-center" d="M273.01 430.94 Q272 423 279.41 426.01 Q341 451 334.06 454.98 Q280 486 278.99 478.06 Z"/>
    <rect id="sacral-center" x="169" y="503" width="84" height="94" rx="11"/>
    <path id="splenic-center" d="M21 513 Q21 504 29.11 500.1 Q98 467 98 476 Q98 592 89.89 588.1 Q21 555 21 546 Z"/>
    <path id="solar-plexus-center" d="M401 513 Q401 504 392.89 500.1 Q324 467 324 476 Q324 592 332.11 588.1 Q401 555 401 546 Z"/>
    <rect id="root-center" x="169" y="621" width="84" height="82" rx="11"/></g>
  <g font-family="-apple-system,BlinkMacSystemFont,Segoe UI,sans-serif" font-size="6.4" font-weight="700" text-anchor="middle" dominant-baseline="middle">
    <g class="gate">
      <circle cx="185" cy="76" r="7.1"/>
      <text x="185" y="76.25" data-gate-number="64">64</text>
    </g>
    <g class="gate">
      <circle cx="211" cy="76" r="7.1"/>
      <text x="211" y="76.25" data-gate-number="61">61</text>
    </g>
    <g class="gate">
      <circle cx="237" cy="76" r="7.1"/>
      <text x="237" y="76.25" data-gate-number="63">63</text>
    </g>
    <g class="gate">
      <circle cx="185" cy="134" r="7.1"/>
      <text x="185" y="134.25" data-gate-number="47">47</text>
    </g>
    <g class="gate">
      <circle cx="211" cy="134" r="7.1"/>
      <text x="211" y="134.25" data-gate-number="24">24</text>
    </g>
    <g class="gate">
      <circle cx="237" cy="134" r="7.1"/>
      <text x="237" y="134.25" data-gate-number="4">4</text>
    </g>
    <g class="gate">
      <circle cx="185" cy="184" r="7.1"/>
      <text x="185" y="184.25" data-gate-number="17">17</text>
    </g>
    <g class="gate">
      <circle cx="211" cy="184" r="7.1"/>
      <text x="211" y="184.25" data-gate-number="43">43</text>
    </g>
    <g class="gate">
      <circle cx="237" cy="184" r="7.1"/>
      <text x="237" y="184.25" data-gate-number="11">11</text>
    </g>
    <g class="gate">
      <circle cx="185" cy="244" r="7.1"/>
      <text x="185" y="244.25" data-gate-number="62">62</text>
    </g>
    <g class="gate">
      <circle cx="211" cy="244" r="7.1"/>
      <text x="211" y="244.25" data-gate-number="23">23</text>
    </g>
    <g class="gate">
      <circle cx="237" cy="244" r="7.1"/>
      <text x="237" y="244.25" data-gate-number="56">56</text>
    </g>
    <g class="gate">
      <circle cx="181" cy="270" r="7.1"/>
      <text x="181" y="270.25" data-gate-number="16">16</text>
    </g>
    <g class="gate">
      <circle cx="241" cy="270" r="7.1"/>
      <text x="241" y="270.25" data-gate-number="35">35</text>
    </g>
    <g class="gate">
      <circle cx="241" cy="292" r="7.1"/>
      <text x="241" y="292.25" data-gate-number="12">12</text>
    </g>
    <g class="gate">
      <circle cx="179" cy="306" r="7.1"/>
      <text x="179" y="306.25" data-gate-number="45">45</text>
    </g>
    <g class="gate">
      <circle cx="195" cy="306" r="7.1"/>
      <text x="195" y="306.25" data-gate-number="31">31</text>
    </g>
    <g class="gate">
      <circle cx="211" cy="306" r="7.1"/>
      <text x="211" y="306.25" data-gate-number="8">8</text>
    </g>
    <g class="gate">
      <circle cx="227" cy="306" r="7.1"/>
      <text x="227" y="306.25" data-gate-number="33">33</text>
    </g>
    <g class="gate">
      <circle cx="243" cy="306" r="7.1"/>
      <text x="243" y="306.25" data-gate-number="20">20</text>
    </g>
    <g class="gate">
      <circle cx="190" cy="382" r="7.1"/>
      <text x="190" y="382.25" data-gate-number="7">7</text>
    </g>
    <g class="gate">
      <circle cx="211" cy="374" r="7.1"/>
      <text x="211" y="374.25" data-gate-number="1">1</text>
    </g>
    <g class="gate">
      <circle cx="232" cy="382" r="7.1"/>
      <text x="232" y="382.25" data-gate-number="13">13</text>
    </g>
    <g class="gate">
      <circle cx="181" cy="403" r="7.1"/>
      <text x="181" y="403.25" data-gate-number="10">10</text>
    </g>
    <g class="gate">
      <circle cx="190" cy="424" r="7.1"/>
      <text x="190" y="424.25" data-gate-number="15">15</text>
    </g>
    <g class="gate">
      <circle cx="211" cy="435" r="7.1"/>
      <text x="211" y="435.25" data-gate-number="2">2</text>
    </g>
    <g class="gate">
      <circle cx="232" cy="424" r="7.1"/>
      <text x="232" y="424.25" data-gate-number="46">46</text>
    </g>
    <g class="gate">
      <circle cx="241" cy="403" r="7.1"/>
      <text x="241" y="403.25" data-gate-number="25">25</text>
    </g>
    <g class="gate">
      <circle cx="284" cy="441" r="7.1"/>
      <text x="284" y="441.25" data-gate-number="21">21</text>
    </g>
    <g class="gate">
      <circle cx="298" cy="448" r="7.1"/>
      <text x="298" y="448.25" data-gate-number="51">51</text>
    </g>
    <g class="gate">
      <circle cx="292" cy="468" r="7.1"/>
      <text x="292" y="468.25" data-gate-number="26">26</text>
    </g>
    <g class="gate">
      <circle cx="325" cy="455" r="7.1"/>
      <text x="325" y="455.25" data-gate-number="40">40</text>
    </g>
    <g class="gate">
      <circle cx="180" cy="548" r="7.1"/>
      <text x="180" y="548.25" data-gate-number="34">34</text>
    </g>
    <g class="gate">
      <circle cx="187" cy="518" r="7.1"/>
      <text x="187" y="518.25" data-gate-number="5">5</text>
    </g>
    <g class="gate">
      <circle cx="211" cy="518" r="7.1"/>
      <text x="211" y="518.25" data-gate-number="14">14</text>
    </g>
    <g class="gate">
      <circle cx="235" cy="518" r="7.1"/>
      <text x="235" y="518.25" data-gate-number="29">29</text>
    </g>
    <g class="gate">
      <circle cx="242" cy="548" r="7.1"/>
      <text x="242" y="548.25" data-gate-number="59">59</text>
    </g>
    <g class="gate">
      <circle cx="235" cy="582" r="7.1"/>
      <text x="235" y="582.25" data-gate-number="9">9</text>
    </g>
    <g class="gate">
      <circle cx="187" cy="582" r="7.1"/>
      <text x="187" y="582.25" data-gate-number="3">3</text>
    </g>
    <g class="gate">
      <circle cx="211" cy="582" r="7.1"/>
      <text x="211" y="582.25" data-gate-number="42">42</text>
    </g>
    <g class="gate">
      <circle cx="180" cy="571" r="7.1"/>
      <text x="180" y="571.25" data-gate-number="27">27</text>
    </g>
    <g class="gate">
      <circle cx="36" cy="507" r="7.1"/>
      <text x="36" y="507.25" data-gate-number="48">48</text>
    </g>
    <g class="gate">
      <circle cx="82" cy="486" r="7.1"/>
      <text x="82" y="486.25" data-gate-number="57">57</text>
    </g>
    <g class="gate">
      <circle cx="88" cy="516" r="7.1"/>
      <text x="88" y="516.25" data-gate-number="44">44</text>
    </g>
    <g class="gate">
      <circle cx="88" cy="540" r="7.1"/>
      <text x="88" y="540.25" data-gate-number="50">50</text>
    </g>
    <g class="gate">
      <circle cx="88" cy="562" r="7.1"/>
      <text x="88" y="562.25" data-gate-number="32">32</text>
    </g>
    <g class="gate">
      <circle cx="68" cy="575" r="7.1"/>
      <text x="68" y="575.25" data-gate-number="28">28</text>
    </g>
    <g class="gate">
      <circle cx="40" cy="558" r="7.1"/>
      <text x="40" y="558.25" data-gate-number="18">18</text>
    </g>
    <g class="gate">
      <circle cx="386" cy="507" r="7.1"/>
      <text x="386" y="507.25" data-gate-number="36">36</text>
    </g>
    <g class="gate">
      <circle cx="340" cy="486" r="7.1"/>
      <text x="340" y="486.25" data-gate-number="22">22</text>
    </g>
    <g class="gate">
      <circle cx="334" cy="516" r="7.1"/>
      <text x="334" y="516.25" data-gate-number="37">37</text>
    </g>
    <g class="gate">
      <circle cx="334" cy="540" r="7.1"/>
      <text x="334" y="540.25" data-gate-number="6">6</text>
    </g>
    <g class="gate">
      <circle cx="334" cy="562" r="7.1"/>
      <text x="334" y="562.25" data-gate-number="49">49</text>
    </g>
    <g class="gate">
      <circle cx="354" cy="575" r="7.1"/>
      <text x="354" y="575.25" data-gate-number="55">55</text>
    </g>
    <g class="gate">
      <circle cx="382" cy="558" r="7.1"/>
      <text x="382" y="558.25" data-gate-number="30">30</text>
    </g>
    <g class="gate">
      <circle cx="185" cy="635" r="7.1"/>
      <text x="185" y="635.25" data-gate-number="53">53</text>
    </g>
    <g class="gate">
      <circle cx="211" cy="635" r="7.1"/>
      <text x="211" y="635.25" data-gate-number="60">60</text>
    </g>
    <g class="gate">
      <circle cx="237" cy="635" r="7.1"/>
      <text x="237" y="635.25" data-gate-number="52">52</text>
    </g>
    <g class="gate">
      <circle cx="180" cy="654" r="7.1"/>
      <text x="180" y="654.25" data-gate-number="54">54</text>
    </g>
    <g class="gate">
      <circle cx="180" cy="675" r="7.1"/>
      <text x="180" y="675.25" data-gate-number="38">38</text>
    </g>
    <g class="gate">
      <circle cx="190" cy="692" r="7.1"/>
      <text x="190" y="692.25" data-gate-number="58">58</text>
    </g>
    <g class="gate">
      <circle cx="232" cy="692" r="7.1"/>
      <text x="232" y="692.25" data-gate-number="19">19</text>
    </g>
    <g class="gate">
      <circle cx="242" cy="675" r="7.1"/>
      <text x="242" y="675.25" data-gate-number="39">39</text>
    </g>
    <g class="gate">
      <circle cx="242" cy="654" r="7.1"/>
      <text x="242" y="654.25" data-gate-number="41">41</text>
    </g></g>
</svg>
