<svg xmlns="http://www.w3.org/2000/svg" viewBox="0 0 422 813">
  <title>Pluto Life Manual BodyGraph</title>
  <defs><radialGradient id="aura" cx="50%" cy="45%" r="62%"><stop offset="0" stop-color="#f8ead4" stop-opacity=".38"/><stop offset="1" stop-color="#f8ead4" stop-opacity="0"/></radialGradient></defs>
  <ellipse cx="211" cy="430" rx="195" ry="360" fill="url(#aura)"/>
  <g fill="none" stroke="#c08a3c" stroke-width="1" opacity=".22"><ellipse cx="211" cy="430" rx="174" ry="330"/><ellipse cx="211" cy="430" rx="142" ry="286"/></g>
  <g fill="none" stroke="#d3993d" stroke-width="8" stroke-linecap="round" opacity=".88"><path d="M211 423 L211 354"/><path d="M187 514 L244 600"/><path d="M178 670 L211 738"/><path d="M246 174 L238 94"/><path d="M211 600 L258 475"/><path d="M340 551 L211 635"/><path d="M187 436 L188 354"/><path d="M244 635 L250 738"/><path d="M164 475 L256 344"/><path d="M164 475 L178 600"/><path d="M164 475 L101 494"/><path d="M238 207 L247 281"/><path d="M247 312 L321 494"/><path d="M235 436 L234 354"/><path d="M175 312 L67 514"/><path d="M184 207 L175 281"/><path d="M120 618 L211 773"/><path d="M230 773 L302 570"/><path d="M256 344 L178 600"/><path d="M256 344 L101 494"/><path d="M307 436 L166 344"/><path d="M211 281 L211 214"/><path d="M211 174 L211 94"/><path d="M235 514 L330 438"/><path d="M307 454 L120 526"/><path d="M244 670 L82 551"/><path d="M82 592 L192 773"/><path d="M178 635 L211 527"/><path d="M302 618 L211 751"/><path d="M120 570 L172 762"/><path d="M178 600 L101 494"/><path d="M211 312 L355 514"/><path d="M302 526 L330 456"/><path d="M250 762 L340 592"/><path d="M211 670 L172 738"/><path d="M176 174 L184 94"/></g>
  <g fill="none" stroke="#f2e6d3" stroke-width="5.8" stroke-linecap="round" opacity=".96"><path d="M211 423 L211 354"/><path d="M187 514 L244 600"/><path d="M178 670 L211 738"/><path d="M246 174 L238 94"/><path d="M211 600 L258 475"/><path d="M340 551 L211 635"/><path d="M187 436 L188 354"/><path d="M244 635 L250 738"/><path d="M164 475 L256 344"/><path d="M164 475 L178 600"/><path d="M164 475 L101 494"/><path d="M238 207 L247 281"/><path d="M247 312 L321 494"/><path d="M235 436 L234 354"/><path d="M175 312 L67 514"/><path d="M184 207 L175 281"/><path d="M120 618 L211 773"/><path d="M230 773 L302 570"/><path d="M256 344 L178 600"/><path d="M256 344 L101 494"/><path d="M307 436 L166 344"/><path d="M211 281 L211 214"/><path d="M211 174 L211 94"/><path d="M235 514 L330 438"/><path d="M307 454 L120 526"/><path d="M244 670 L82 551"/><path d="M82 592 L192 773"/><path d="M178 635 L211 527"/><path d="M302 618 L211 751"/><path d="M120 570 L172 762"/><path d="M178 600 L101 494"/><path d="M211 312 L355 514"/><path d="M302 526 L330 456"/><path d="M250 762 L340 592"/><path d="M211 670 L172 738"/><path d="M176 174 L184 94"/></g>
  <g fill="transparent"><polygon data-gate-line="1" data-gate-line-type="design" points="206.65,423.00 210.85,423.00 210.85,388.50 206.65,388.50"/><polygon data-gate-line="1" data-gate-line-type="personality" points="211.15,423.00 215.35,423.00 215.35,388.50 211.15,388.50"/><polygon data-gate-line="8" data-gate-line-type="design" points="215.35,354.00 211.15,354.00 211.15,388.50 215.35,388.50"/><polygon data-gate-line="8" data-gate-line-type="personality" points="210.85,354.00 206.65,354.00 206.65,388.50 210.85,388.50"/><polygon data-gate-line="2" data-gate-line-type="design" points="190.63,511.60 187.13,513.92 215.63,556.92 219.13,554.60"/><polygon data-gate-line="2" data-gate-line-type="personality" points="186.87,514.08 183.37,516.40 211.87,559.40 215.37,557.08"/><polygon data-gate-line="14" data-gate-line-type="design" points="240.37,602.40 243.87,600.08 215.37,557.08 211.87,559.40"/><polygon data-gate-line="14" data-gate-line-type="personality" points="244.13,599.92 247.63,597.60 219.13,554.60 215.63,556.92"/><polygon data-gate-line="3" data-gate-line-type="design" points="181.91,668.10 178.13,669.93 194.63,703.93 198.41,702.10"/><polygon data-gate-line="3" data-gate-line-type="personality" points="177.87,670.07 174.09,671.90 190.59,705.90 194.37,704.07"/><polygon data-gate-line="60" data-gate-line-type="design" points="207.09,739.90 210.87,738.07 194.37,704.07 190.59,705.90"/><polygon data-gate-line="60" data-gate-line-type="personality" points="211.13,737.93 214.91,736.10 198.41,702.10 194.63,703.93"/><polygon data-gate-line="4" data-gate-line-type="design" points="241.67,174.43 245.85,174.01 241.85,134.01 237.67,134.43"/><polygon data-gate-line="4" data-gate-line-type="personality" points="246.15,173.99 250.33,173.57 246.33,133.57 242.15,133.99"/><polygon data-gate-line="63" data-gate-line-type="design" points="242.33,93.57 238.15,93.99 242.15,133.99 246.33,133.57"/><polygon data-gate-line="63" data-gate-line-type="personality" points="237.85,94.01 233.67,94.43 237.67,134.43 241.85,134.01"/><polygon data-gate-line="5" data-gate-line-type="design" points="206.93,598.47 210.86,599.95 234.36,537.45 230.43,535.97"/><polygon data-gate-line="5" data-gate-line-type="personality" points="211.14,600.05 215.07,601.53 238.57,539.03 234.64,537.55"/><polygon data-gate-line="15" data-gate-line-type="design" points="262.07,476.53 258.14,475.05 234.64,537.55 238.57,539.03"/><polygon data-gate-line="15" data-gate-line-type="personality" points="257.86,474.95 253.93,473.47 230.43,535.97 234.36,537.45"/><polygon data-gate-line="6" data-gate-line-type="design" points="342.37,554.65 340.08,551.13 275.58,593.13 277.87,596.65"/><polygon data-gate-line="6" data-gate-line-type="personality" points="339.92,550.87 337.63,547.35 273.13,589.35 275.42,592.87"/><polygon data-gate-line="59" data-gate-line-type="design" points="208.63,631.35 210.92,634.87 275.42,592.87 273.13,589.35"/><polygon data-gate-line="59" data-gate-line-type="personality" points="211.08,635.13 213.37,638.65 277.87,596.65 275.58,593.13"/><polygon data-gate-line="7" data-gate-line-type="design" points="182.65,435.95 186.85,436.00 187.35,395.00 183.15,394.95"/><polygon data-gate-line="7" data-gate-line-type="personality" points="187.15,436.00 191.35,436.05 191.85,395.05 187.65,395.00"/><polygon data-gate-line="31" data-gate-line-type="design" points="192.35,354.05 188.15,354.00 187.65,395.00 191.85,395.05"/><polygon data-gate-line="31" data-gate-line-type="personality" points="187.85,354.00 183.65,353.95 183.15,394.95 187.35,395.00"/><polygon data-gate-line="9" data-gate-line-type="design" points="248.34,634.75 244.15,634.99 247.15,686.49 251.34,686.25"/><polygon data-gate-line="9" data-gate-line-type="personality" points="243.85,635.01 239.66,635.25 242.66,686.75 246.85,686.51"/><polygon data-gate-line="52" data-gate-line-type="design" points="245.66,738.25 249.85,738.01 246.85,686.51 242.66,686.75"/><polygon data-gate-line="52" data-gate-line-type="personality" points="250.15,737.99 254.34,737.75 251.34,686.25 247.15,686.49"/><polygon data-gate-line="10" data-gate-line-type="design" points="160.44,472.50 163.88,474.91 209.88,409.41 206.44,407.00"/><polygon data-gate-line="10" data-gate-line-type="personality" points="164.12,475.09 167.56,477.50 213.56,412.00 210.12,409.59"/><polygon data-gate-line="20" data-gate-line-type="design" points="259.56,346.50 256.12,344.09 210.12,409.59 213.56,412.00"/><polygon data-gate-line="20" data-gate-line-type="personality" points="255.88,343.91 252.44,341.50 206.44,407.00 209.88,409.41"/><polygon data-gate-line="10" data-gate-line-type="design" points="168.32,474.52 164.15,474.98 171.15,537.48 175.32,537.02"/><polygon data-gate-line="10" data-gate-line-type="personality" points="163.85,475.02 159.68,475.48 166.68,537.98 170.85,537.52"/><polygon data-gate-line="34" data-gate-line-type="design" points="173.68,600.48 177.85,600.02 170.85,537.52 166.68,537.98"/><polygon data-gate-line="34" data-gate-line-type="personality" points="178.15,599.98 182.32,599.52 175.32,537.02 171.15,537.48"/><polygon data-gate-line="10" data-gate-line-type="design" points="165.26,479.16 164.04,475.14 132.54,484.64 133.76,488.66"/><polygon data-gate-line="10" data-gate-line-type="personality" points="163.96,474.86 162.74,470.84 131.24,480.34 132.46,484.36"/><polygon data-gate-line="57" data-gate-line-type="design" points="99.74,489.84 100.96,493.86 132.46,484.36 131.24,480.34"/><polygon data-gate-line="57" data-gate-line-type="personality" points="101.04,494.14 102.26,498.16 133.76,488.66 132.54,484.64"/><polygon data-gate-line="11" data-gate-line-type="design" points="242.32,206.47 238.15,206.98 242.65,243.98 246.82,243.47"/><polygon data-gate-line="11" data-gate-line-type="personality" points="237.85,207.02 233.68,207.53 238.18,244.53 242.35,244.02"/><polygon data-gate-line="56" data-gate-line-type="design" points="242.68,281.53 246.85,281.02 242.35,244.02 238.18,244.53"/><polygon data-gate-line="56" data-gate-line-type="personality" points="247.15,280.98 251.32,280.47 246.82,243.47 242.65,243.98"/><polygon data-gate-line="12" data-gate-line-type="design" points="251.03,310.36 247.14,311.94 284.14,402.94 288.03,401.36"/><polygon data-gate-line="12" data-gate-line-type="personality" points="246.86,312.06 242.97,313.64 279.97,404.64 283.86,403.06"/><polygon data-gate-line="22" data-gate-line-type="design" points="316.97,495.64 320.86,494.06 283.86,403.06 279.97,404.64"/><polygon data-gate-line="22" data-gate-line-type="personality" points="321.14,493.94 325.03,492.36 288.03,401.36 284.14,402.94"/><polygon data-gate-line="13" data-gate-line-type="design" points="230.65,436.05 234.85,436.00 234.35,395.00 230.15,395.05"/><polygon data-gate-line="13" data-gate-line-type="personality" points="235.15,436.00 239.35,435.95 238.85,394.95 234.65,395.00"/><polygon data-gate-line="33" data-gate-line-type="design" points="238.35,353.95 234.15,354.00 234.65,395.00 238.85,394.95"/><polygon data-gate-line="33" data-gate-line-type="personality" points="233.85,354.00 229.65,354.05 230.15,395.05 234.35,395.00"/><polygon data-gate-line="16" data-gate-line-type="design" points="178.84,314.05 175.13,312.07 121.13,413.07 124.84,415.05"/><polygon data-gate-line="16" data-gate-line-type="personality" points="174.87,311.93 171.16,309.95 117.16,410.95 120.87,412.93"/><polygon data-gate-line="48" data-gate-line-type="design" points="63.16,511.95 66.87,513.93 120.87,412.93 117.16,410.95"/><polygon data-gate-line="48" data-gate-line-type="personality" points="67.13,514.07 70.84,516.05 124.84,415.05 121.13,413.07"/><polygon data-gate-line="17" data-gate-line-type="design" points="188.32,207.53 184.15,207.02 179.65,244.02 183.82,244.53"/><polygon data-gate-line="17" data-gate-line-type="personality" points="183.85,206.98 179.68,206.47 175.18,243.47 179.35,243.98"/><polygon data-gate-line="62" data-gate-line-type="design" points="170.68,280.47 174.85,280.98 179.35,243.98 175.18,243.47"/><polygon data-gate-line="62" data-gate-line-type="personality" points="175.15,281.02 179.32,281.53 183.82,244.53 179.65,244.02"/><polygon data-gate-line="18" data-gate-line-type="design" points="123.75,615.80 120.13,617.92 165.63,695.42 169.25,693.30"/><polygon data-gate-line="18" data-gate-line-type="personality" points="119.87,618.08 116.25,620.20 161.75,697.70 165.37,695.58"/><polygon data-gate-line="58" data-gate-line-type="design" points="207.25,775.20 210.87,773.08 165.37,695.58 161.75,697.70"/><polygon data-gate-line="58" data-gate-line-type="personality" points="211.13,772.92 214.75,770.80 169.25,693.30 165.63,695.42"/><polygon data-gate-line="19" data-gate-line-type="design" points="225.90,771.55 229.86,772.95 265.86,671.45 261.90,670.05"/><polygon data-gate-line="19" data-gate-line-type="personality" points="230.14,773.05 234.10,774.45 270.10,672.95 266.14,671.55"/><polygon data-gate-line="49" data-gate-line-type="design" points="306.10,571.45 302.14,570.05 266.14,671.55 270.10,672.95"/><polygon data-gate-line="49" data-gate-line-type="personality" points="301.86,569.95 297.90,568.55 261.90,670.05 265.86,671.45"/><polygon data-gate-line="20" data-gate-line-type="design" points="260.16,345.27 256.14,344.04 217.14,472.04 221.16,473.27"/><polygon data-gate-line="20" data-gate-line-type="personality" points="255.86,343.96 251.84,342.73 212.84,470.73 216.86,471.96"/><polygon data-gate-line="34" data-gate-line-type="design" points="173.84,598.73 177.86,599.96 216.86,471.96 212.84,470.73"/><polygon data-gate-line="34" data-gate-line-type="personality" points="178.14,600.04 182.16,601.27 221.16,473.27 217.14,472.04"/><polygon data-gate-line="20" data-gate-line-type="design" points="259.03,347.13 256.10,344.11 178.60,419.11 181.53,422.13"/><polygon data-gate-line="20" data-gate-line-type="personality" points="255.90,343.89 252.97,340.87 175.47,415.87 178.40,418.89"/><polygon data-gate-line="57" data-gate-line-type="design" points="97.97,490.87 100.90,493.89 178.40,418.89 175.47,415.87"/><polygon data-gate-line="57" data-gate-line-type="personality" points="101.10,494.11 104.03,497.13 181.53,422.13 178.60,419.11"/><polygon data-gate-line="21" data-gate-line-type="design" points="304.62,439.64 306.92,436.13 236.42,390.13 234.12,393.64"/><polygon data-gate-line="21" data-gate-line-type="personality" points="307.08,435.87 309.38,432.36 238.88,386.36 236.58,389.87"/><polygon data-gate-line="45" data-gate-line-type="design" points="168.38,340.36 166.08,343.87 236.58,389.87 238.88,386.36"/><polygon data-gate-line="45" data-gate-line-type="personality" points="165.92,344.13 163.62,347.64 234.12,393.64 236.42,390.13"/><polygon data-gate-line="23" data-gate-line-type="design" points="206.65,281.00 210.85,281.00 210.85,247.50 206.65,247.50"/><polygon data-gate-line="23" data-gate-line-type="personality" points="211.15,281.00 215.35,281.00 215.35,247.50 211.15,247.50"/><polygon data-gate-line="43" data-gate-line-type="design" points="215.35,214.00 211.15,214.00 211.15,247.50 215.35,247.50"/><polygon data-gate-line="43" data-gate-line-type="personality" points="210.85,214.00 206.65,214.00 206.65,247.50 210.85,247.50"/><polygon data-gate-line="24" data-gate-line-type="design" points="206.65,174.00 210.85,174.00 210.85,134.00 206.65,134.00"/><polygon data-gate-line="24" data-gate-line-type="personality" points="211.15,174.00 215.35,174.00 215.35,134.00 211.15,134.00"/><polygon data-gate-line="61" data-gate-line-type="design" points="215.35,94.00 211.15,94.00 211.15,134.00 215.35,134.00"/><polygon data-gate-line="61" data-gate-line-type="personality" points="210.85,94.00 206.65,94.00 206.65,134.00 210.85,134.00"/><polygon data-gate-line="25" data-gate-line-type="design" points="232.28,510.60 234.91,513.88 282.41,475.88 279.78,472.60"/><polygon data-gate-line="25" data-gate-line-type="personality" points="235.09,514.12 237.72,517.40 285.22,479.40 282.59,476.12"/><polygon data-gate-line="51" data-gate-line-type="design" points="332.72,441.40 330.09,438.12 282.59,476.12 285.22,479.40"/><polygon data-gate-line="51" data-gate-line-type="personality" points="329.91,437.88 327.28,434.60 279.78,472.60 282.41,475.88"/><polygon data-gate-line="26" data-gate-line-type="design" points="308.56,458.06 307.05,454.14 213.55,490.14 215.06,494.06"/><polygon data-gate-line="26" data-gate-line-type="personality" points="306.95,453.86 305.44,449.94 211.94,485.94 213.45,489.86"/><polygon data-gate-line="44" data-gate-line-type="design" points="118.44,521.94 119.95,525.86 213.45,489.86 211.94,485.94"/><polygon data-gate-line="44" data-gate-line-type="personality" points="120.05,526.14 121.56,530.06 215.06,494.06 213.55,490.14"/><polygon data-gate-line="27" data-gate-line-type="design" points="241.42,673.51 243.91,670.12 162.91,610.62 160.42,614.01"/><polygon data-gate-line="27" data-gate-line-type="personality" points="244.09,669.88 246.58,666.49 165.58,606.99 163.09,610.38"/><polygon data-gate-line="50" data-gate-line-type="design" points="84.58,547.49 82.09,550.88 163.09,610.38 165.58,606.99"/><polygon data-gate-line="50" data-gate-line-type="personality" points="81.91,551.12 79.42,554.51 160.42,614.01 162.91,610.62"/><polygon data-gate-line="28" data-gate-line-type="design" points="85.72,589.74 82.13,591.92 137.13,682.42 140.72,680.24"/><polygon data-gate-line="28" data-gate-line-type="personality" points="81.87,592.08 78.28,594.26 133.28,684.76 136.87,682.58"/><polygon data-gate-line="38" data-gate-line-type="design" points="188.28,775.26 191.87,773.08 136.87,682.58 133.28,684.76"/><polygon data-gate-line="38" data-gate-line-type="personality" points="192.13,772.92 195.72,770.74 140.72,680.24 137.13,682.42"/><polygon data-gate-line="29" data-gate-line-type="design" points="173.84,633.73 177.86,634.96 194.36,580.96 190.34,579.73"/><polygon data-gate-line="29" data-gate-line-type="personality" points="178.14,635.04 182.16,636.27 198.66,582.27 194.64,581.04"/><polygon data-gate-line="46" data-gate-line-type="design" points="215.16,528.27 211.14,527.04 194.64,581.04 198.66,582.27"/><polygon data-gate-line="46" data-gate-line-type="personality" points="210.86,526.96 206.84,525.73 190.34,579.73 194.36,580.96"/><polygon data-gate-line="30" data-gate-line-type="design" points="305.59,620.46 302.12,618.08 256.62,684.58 260.09,686.96"/><polygon data-gate-line="30" data-gate-line-type="personality" points="301.88,617.92 298.41,615.54 252.91,682.04 256.38,684.42"/><polygon data-gate-line="41" data-gate-line-type="design" points="207.41,748.54 210.88,750.92 256.38,684.42 252.91,682.04"/><polygon data-gate-line="41" data-gate-line-type="personality" points="211.12,751.08 214.59,753.46 260.09,686.96 256.62,684.58"/><polygon data-gate-line="32" data-gate-line-type="design" points="124.20,568.86 120.14,569.96 146.14,665.96 150.20,664.86"/><polygon data-gate-line="32" data-gate-line-type="personality" points="119.86,570.04 115.80,571.14 141.80,667.14 145.86,666.04"/><polygon data-gate-line="54" data-gate-line-type="design" points="167.80,763.14 171.86,762.04 145.86,666.04 141.80,667.14"/><polygon data-gate-line="54" data-gate-line-type="personality" points="172.14,761.96 176.20,760.86 150.20,664.86 146.14,665.96"/><polygon data-gate-line="34" data-gate-line-type="design" points="174.48,602.56 177.88,600.09 139.38,547.09 135.98,549.56"/><polygon data-gate-line="34" data-gate-line-type="personality" points="178.12,599.91 181.52,597.44 143.02,544.44 139.62,546.91"/><polygon data-gate-line="57" data-gate-line-type="design" points="104.52,491.44 101.12,493.91 139.62,546.91 143.02,544.44"/><polygon data-gate-line="57" data-gate-line-type="personality" points="100.88,494.09 97.48,496.56 135.98,549.56 139.38,547.09"/><polygon data-gate-line="35" data-gate-line-type="design" points="214.54,309.47 211.12,311.91 283.12,412.91 286.54,410.47"/><polygon data-gate-line="35" data-gate-line-type="personality" points="210.88,312.09 207.46,314.53 279.46,415.53 282.88,413.09"/><polygon data-gate-line="36" data-gate-line-type="design" points="351.46,516.53 354.88,514.09 282.88,413.09 279.46,415.53"/><polygon data-gate-line="36" data-gate-line-type="personality" points="355.12,513.91 358.54,511.47 286.54,410.47 283.12,412.91"/><polygon data-gate-line="37" data-gate-line-type="design" points="297.96,524.38 301.86,525.94 315.86,490.94 311.96,489.38"/><polygon data-gate-line="37" data-gate-line-type="personality" points="302.14,526.06 306.04,527.62 320.04,492.62 316.14,491.06"/><polygon data-gate-line="40" data-gate-line-type="design" points="334.04,457.62 330.14,456.06 316.14,491.06 320.04,492.62"/><polygon data-gate-line="40" data-gate-line-type="personality" points="329.86,455.94 325.96,454.38 311.96,489.38 315.86,490.94"/><polygon data-gate-line="39" data-gate-line-type="design" points="246.16,759.96 249.87,761.93 294.87,676.93 291.16,674.96"/><polygon data-gate-line="39" data-gate-line-type="personality" points="250.13,762.07 253.84,764.04 298.84,679.04 295.13,677.07"/><polygon data-gate-line="55" data-gate-line-type="design" points="343.84,594.04 340.13,592.07 295.13,677.07 298.84,679.04"/><polygon data-gate-line="55" data-gate-line-type="personality" points="339.87,591.93 336.16,589.96 291.16,674.96 294.87,676.93"/><polygon data-gate-line="42" data-gate-line-type="design" points="214.77,672.16 211.13,670.07 191.63,704.07 195.27,706.16"/><polygon data-gate-line="42" data-gate-line-type="personality" points="210.87,669.93 207.23,667.84 187.73,701.84 191.37,703.93"/><polygon data-gate-line="53" data-gate-line-type="design" points="168.23,735.84 171.87,737.93 191.37,703.93 187.73,701.84"/><polygon data-gate-line="53" data-gate-line-type="personality" points="172.13,738.07 175.77,740.16 195.27,706.16 191.63,704.07"/><polygon data-gate-line="47" data-gate-line-type="design" points="171.67,173.57 175.85,173.99 179.85,133.99 175.67,133.57"/><polygon data-gate-line="47" data-gate-line-type="personality" points="176.15,174.01 180.33,174.43 184.33,134.43 180.15,134.01"/><polygon data-gate-line="64" data-gate-line-type="design" points="188.33,94.43 184.15,94.01 180.15,134.01 184.33,134.43"/><polygon data-gate-line="64" data-gate-line-type="personality" points="183.85,93.99 179.67,93.57 175.67,133.57 179.85,133.99"/></g>
  <g fill="#f9eedd" stroke="#a87945" stroke-width="2.4" stroke-linejoin="round"><path id="head-center" d="M211 28 151 129H271Z"/>
    <path id="ajna-center" d="M151 151H271L211 243Z"/>
    <rect id="throat-center" x="153" y="258" width="116" height="122" rx="12"/>
    <path id="g-center" d="M211 397 290 475 211 553 132 475Z"/>
    <path id="heart-center" d="M291 414 351 440 302 474Z"/>
    <rect id="sacral-center" x="156" y="576" width="110" height="118" rx="13"/>
    <path id="splenic-center" d="M44 503 137 457 137 648 44 602Z"/>
    <path id="solar-plexus-center" d="M378 503 285 457 285 648 378 602Z"/>
    <rect id="root-center" x="151" y="716" width="120" height="76" rx="13"/></g>
  <g font-family="-apple-system,BlinkMacSystemFont,Segoe UI,sans-serif" font-size="8" font-weight="700" text-anchor="middle" dominant-baseline="middle">
    <g class="gate">
      <circle cx="184" cy="94" r="9"/>
      <text x="184" y="94.5" data-gate-number="64">64</text>
    </g>
    <g class="gate">
      <circle cx="211" cy="94" r="9"/>
      <text x="211" y="94.5" data-gate-number="61">61</text>
    </g>
    <g class="gate">
      <circle cx="238" cy="94" r="9"/>
      <text x="238" y="94.5" data-gate-number="63">63</text>
    </g>
    <g class="gate">
      <circle cx="176" cy="174" r="9"/>
      <text x="176" y="174.5" data-gate-number="47">47</text>
    </g>
    <g class="gate">
      <circle cx="211" cy="174" r="9"/>
      <text x="211" y="174.5" data-gate-number="24">24</text>
    </g>
    <g class="gate">
      <circle cx="246" cy="174" r="9"/>
      <text x="246" y="174.5" data-gate-number="4">4</text>
    </g>
    <g class="gate">
      <circle cx="184" cy="207" r="9"/>
      <text x="184" y="207.5" data-gate-number="17">17</text>
    </g>
    <g class="gate">
      <circle cx="211" cy="214" r="9"/>
      <text x="211" y="214.5" data-gate-number="43">43</text>
    </g>
    <g class="gate">
      <circle cx="238" cy="207" r="9"/>
      <text x="238" y="207.5" data-gate-number="11">11</text>
    </g>
    <g class="gate">
      <circle cx="175" cy="281" r="9"/>
      <text x="175" y="281.5" data-gate-number="62">62</text>
    </g>
    <g class="gate">
      <circle cx="211" cy="281" r="9"/>
      <text x="211" y="281.5" data-gate-number="23">23</text>
    </g>
    <g class="gate">
      <circle cx="247" cy="281" r="9"/>
      <text x="247" y="281.5" data-gate-number="56">56</text>
    </g>
    <g class="gate">
      <circle cx="175" cy="312" r="9"/>
      <text x="175" y="312.5" data-gate-number="16">16</text>
    </g>
    <g class="gate">
      <circle cx="211" cy="312" r="9"/>
      <text x="211" y="312.5" data-gate-number="35">35</text>
    </g>
    <g class="gate">
      <circle cx="247" cy="312" r="9"/>
      <text x="247" y="312.5" data-gate-number="12">12</text>
    </g>
    <g class="gate">
      <circle cx="166" cy="344" r="9"/>
      <text x="166" y="344.5" data-gate-number="45">45</text>
    </g>
    <g class="gate">
      <circle cx="188" cy="354" r="9"/>
      <text x="188" y="354.5" data-gate-number="31">31</text>
    </g>
    <g class="gate">
      <circle cx="211" cy="354" r="9"/>
      <text x="211" y="354.5" data-gate-number="8">8</text>
    </g>
    <g class="gate">
      <circle cx="234" cy="354" r="9"/>
      <text x="234" y="354.5" data-gate-number="33">33</text>
    </g>
    <g class="gate">
      <circle cx="256" cy="344" r="9"/>
      <text x="256" y="344.5" data-gate-number="20">20</text>
    </g>
    <g class="gate">
      <circle cx="187" cy="436" r="9"/>
      <text x="187" y="436.5" data-gate-number="7">7</text>
    </g>
    <g class="gate">
      <circle cx="211" cy="423" r="9"/>
      <text x="211" y="423.5" data-gate-number="1">1</text>
    </g>
    <g class="gate">
      <circle cx="235" cy="436" r="9"/>
      <text x="235" y="436.5" data-gate-number="13">13</text>
    </g>
    <g class="gate">
      <circle cx="164" cy="475" r="9"/>
      <text x="164" y="475.5" data-gate-number="10">10</text>
    </g>
    <g class="gate">
      <circle cx="258" cy="475" r="9"/>
      <text x="258" y="475.5" data-gate-number="15">15</text>
    </g>
    <g class="gate">
      <circle cx="187" cy="514" r="9"/>
      <text x="187" y="514.5" data-gate-number="2">2</text>
    </g>
    <g class="gate">
      <circle cx="211" cy="527" r="9"/>
      <text x="211" y="527.5" data-gate-number="46">46</text>
    </g>
    <g class="gate">
      <circle cx="235" cy="514" r="9"/>
      <text x="235" y="514.5" data-gate-number="25">25</text>
    </g>
    <g class="gate">
      <circle cx="307" cy="436" r="9"/>
      <text x="307" y="436.5" data-gate-number="21">21</text>
    </g>
    <g class="gate">
      <circle cx="330" cy="438" r="9"/>
      <text x="330" y="438.5" data-gate-number="51">51</text>
    </g>
    <g class="gate">
      <circle cx="307" cy="454" r="9"/>
      <text x="307" y="454.5" data-gate-number="26">26</text>
    </g>
    <g class="gate">
      <circle cx="330" cy="456" r="9"/>
      <text x="330" y="456.5" data-gate-number="40">40</text>
    </g>
    <g class="gate">
      <circle cx="178" cy="600" r="9"/>
      <text x="178" y="600.5" data-gate-number="34">34</text>
    </g>
    <g class="gate">
      <circle cx="211" cy="600" r="9"/>
      <text x="211" y="600.5" data-gate-number="5">5</text>
    </g>
    <g class="gate">
      <circle cx="244" cy="600" r="9"/>
      <text x="244" y="600.5" data-gate-number="14">14</text>
    </g>
    <g class="gate">
      <circle cx="178" cy="635" r="9"/>
      <text x="178" y="635.5" data-gate-number="29">29</text>
    </g>
    <g class="gate">
      <circle cx="211" cy="635" r="9"/>
      <text x="211" y="635.5" data-gate-number="59">59</text>
    </g>
    <g class="gate">
      <circle cx="244" cy="635" r="9"/>
      <text x="244" y="635.5" data-gate-number="9">9</text>
    </g>
    <g class="gate">
      <circle cx="178" cy="670" r="9"/>
      <text x="178" y="670.5" data-gate-number="3">3</text>
    </g>
    <g class="gate">
      <circle cx="211" cy="670" r="9"/>
      <text x="211" y="670.5" data-gate-number="42">42</text>
    </g>
    <g class="gate">
      <circle cx="244" cy="670" r="9"/>
      <text x="244" y="670.5" data-gate-number="27">27</text>
    </g>
    <g class="gate">
      <circle cx="67" cy="514" r="9"/>
      <text x="67" y="514.5" data-gate-number="48">48</text>
    </g>
    <g class="gate">
      <circle cx="101" cy="494" r="9"/>
      <text x="101" y="494.5" data-gate-number="57">57</text>
    </g>
    <g class="gate">
      <circle cx="120" cy="526" r="9"/>
      <text x="120" y="526.5" data-gate-number="44">44</text>
    </g>
    <g class="gate">
      <circle cx="82" cy="551" r="9"/>
      <text x="82" y="551.5" data-gate-number="50">50</text>
    </g>
    <g class="gate">
      <circle cx="120" cy="570" r="9"/>
      <text x="120" y="570.5" data-gate-number="32">32</text>
    </g>
    <g class="gate">
      <circle cx="82" cy="592" r="9"/>
      <text x="82" y="592.5" data-gate-number="28">28</text>
    </g>
    <g class="gate">
      <circle cx="120" cy="618" r="9"/>
      <text x="120" y="618.5" data-gate-number="18">18</text>
    </g>
    <g class="gate">
      <circle cx="355" cy="514" r="9"/>
      <text x="355" y="514.5" data-gate-number="36">36</text>
    </g>
    <g class="gate">
      <circle cx="321" cy="494" r="9"/>
      <text x="321" y="494.5" data-gate-number="22">22</text>
    </g>
    <g class="gate">
      <circle cx="302" cy="526" r="9"/>
      <text x="302" y="526.5" data-gate-number="37">37</text>
    </g>
    <g class="gate">
      <circle cx="340" cy="551" r="9"/>
      <text x="340" y="551.5" data-gate-number="6">6</text>
    </g>
    <g class="gate">
      <circle cx="302" cy="570" r="9"/>
      <text x="302" y="570.5" data-gate-number="49">49</text>
    </g>
    <g class="gate">
      <circle cx="340" cy="592" r="9"/>
      <text x="340" y="592.5" data-gate-number="55">55</text>
    </g>
    <g class="gate">
      <circle cx="302" cy="618" r="9"/>
      <text x="302" y="618.5" data-gate-number="30">30</text>
    </g>
    <g class="gate">
      <circle cx="172" cy="738" r="9"/>
      <text x="172" y="738.5" data-gate-number="53">53</text>
    </g>
    <g class="gate">
      <circle cx="211" cy="738" r="9"/>
      <text x="211" y="738.5" data-gate-number="60">60</text>
    </g>
    <g class="gate">
      <circle cx="250" cy="738" r="9"/>
      <text x="250" y="738.5" data-gate-number="52">52</text>
    </g>
    <g class="gate">
      <circle cx="172" cy="762" r="9"/>
      <text x="172" y="762.5" data-gate-number="54">54</text>
    </g>
    <g class="gate">
      <circle cx="192" cy="773" r="9"/>
      <text x="192" y="773.5" data-gate-number="38">38</text>
    </g>
    <g class="gate">
      <circle cx="211" cy="773" r="9"/>
      <text x="211" y="773.5" data-gate-number="58">58</text>
    </g>
    <g class="gate">
      <circle cx="230" cy="773" r="9"/>
      <text x="230" y="773.5" data-gate-number="19">19</text>
    </g>
    <g class="gate">
      <circle cx="250" cy="762" r="9"/>
      <text x="250" y="762.5" data-gate-number="39">39</text>
    </g>
    <g class="gate">
      <circle cx="211" cy="751" r="9"/>
      <text x="211" y="751.5" data-gate-number="41">41</text>
    </g></g>
</svg>
