<svg xmlns="http://www.w3.org/2000/svg" viewBox="0 0 64 64" fill="none" stroke="#526649" stroke-width="2" stroke-linecap="round" stroke-linejoin="round">
  <rect x="13" y="10" width="38" height="44" rx="6" fill="#faf4df"/>
  <path d="M21 10v44M28 23h14m-14 7h14m-14 7h10"/>
  <path d="M39 10v13l4-3 4 3V10" fill="#dd8d43"/>
  <path d="m15 16-6-5q0 9 5 12m36-7 5-5q0 9-5 12" fill="#f3d6a0"/>
  <circle cx="43" cy="44" r="6" fill="#dce6ce"/>
  <path d="m43 40 1.2 2.4 2.8.4-2 2  .5 2.8-2.5-1.3-2.5 1.3.5-2.8-2-2 2.8-.4Z" fill="#e69c4c" stroke="none"/>
</svg>
